<?xml version="1.0" encoding="UTF-8"?>
<!DOCTYPE svg PUBLIC "-//W3C//DTD SVG 1.1//EN" "http://www.w3.org/Graphics/SVG/1.1/DTD/svg11.dtd">
<!-- Creator: CorelDRAW 2021 (64-Bit) -->
<svg xmlns="http://www.w3.org/2000/svg" xml:space="preserve" width="2550px" height="3300px" version="1.1" style="shape-rendering:geometricPrecision; text-rendering:geometricPrecision; image-rendering:optimizeQuality; fill-rule:evenodd; clip-rule:evenodd"
viewBox="0 0 2550 3300"
 xmlns:xlink="http://www.w3.org/1999/xlink"
 xmlns:xodm="http://www.corel.com/coreldraw/odm/2003">
 <defs>
  <style type="text/css">
   <![CDATA[
    .str1 {stroke:#373435;stroke-width:1.01;stroke-miterlimit:2.61313}
    .str0 {stroke:#373435;stroke-width:1.12;stroke-miterlimit:2.61313}
    .fil2 {fill:none}
    .fil4 {fill:#5B9C60}
    .fil5 {fill:#D23D41}
    .fil3 {fill:#373435;fill-rule:nonzero}
    .fil1 {fill:#3E4095;fill-rule:nonzero}
    .fil0 {fill:#D23D41;fill-rule:nonzero}
   ]]>
  </style>
 </defs>
 <g id="Layer_x0020_1">
  <metadata id="CorelCorpID_0Corel-Layer"/>
  <g id="_2223840395632">
   <g>
    <path class="fil0" d="M1108.78 1606.04l9.08 0 0 11.11 9.53 -11.11 12.08 0 -10.71 11.09 11.19 18.32 -11.19 0 -6.2 -12.1 -4.7 4.91 0 7.19 -9.08 0 0 -29.41zm52.27 24.55l-10.35 0 -1.42 4.86 -9.29 0 11.05 -29.41 9.91 0 11.06 29.41 -9.51 0 -1.45 -4.86zm-1.9 -6.36l-3.25 -10.57 -3.24 10.57 6.49 0zm15.82 -18.19l8.49 0 11.07 16.27 0 -16.27 8.56 0 0 29.41 -8.56 0 -11.02 -16.15 0 16.15 -8.54 0 0 -29.41zm34.52 0l9.11 0 0 29.41 -9.11 0 0 -29.41zm15.69 0l8.48 0 11.08 16.27 0 -16.27 8.56 0 0 29.41 -8.56 0 -11.02 -16.15 0 16.15 -8.54 0 0 -29.41zm34.52 0l9.1 0 0 29.41 -9.1 0 0 -29.41zm27.26 0l27.62 0 0 7.26 -9.27 0 0 22.15 -9.09 0 0 -22.15 -9.26 0 0 -7.26zm31.71 0l24.35 0 0 6.28 -15.24 0 0 4.68 14.13 0 0 5.99 -14.13 0 0 5.8 15.68 0 0 6.66 -24.79 0 0 -29.41zm49.26 17.39l7.96 2.41c-0.53,2.23 -1.37,4.09 -2.52,5.59 -1.15,1.5 -2.58,2.63 -4.29,3.39 -1.7,0.77 -3.87,1.15 -6.5,1.15 -3.2,0 -5.82,-0.47 -7.84,-1.39 -2.02,-0.93 -3.78,-2.57 -5.25,-4.91 -1.46,-2.34 -2.2,-5.34 -2.2,-8.98 0,-4.87 1.29,-8.62 3.88,-11.23 2.59,-2.61 6.25,-3.92 10.98,-3.92 3.71,0 6.62,0.75 8.74,2.25 2.12,1.5 3.7,3.8 4.72,6.9l-8.02 1.78c-0.28,-0.89 -0.58,-1.55 -0.89,-1.97 -0.5,-0.69 -1.12,-1.22 -1.86,-1.6 -0.74,-0.38 -1.56,-0.56 -2.47,-0.56 -2.05,0 -3.63,0.83 -4.73,2.48 -0.83,1.24 -1.25,3.17 -1.25,5.8 0,3.27 0.5,5.5 1.49,6.71 0.99,1.22 2.38,1.82 4.17,1.82 1.74,0 3.05,-0.49 3.94,-1.47 0.89,-0.97 1.54,-2.39 1.94,-4.25zm12.41 -17.39l9.09 0 0 10.29 9.93 0 0 -10.29 9.13 0 0 29.41 -9.13 0 0 -11.9 -9.93 0 0 11.9 -9.09 0 0 -29.41zm34.24 0l8.49 0 11.07 16.27 0 -16.27 8.57 0 0 29.41 -8.57 0 -11.01 -16.15 0 16.15 -8.55 0 0 -29.41zm33.02 14.72c0,-4.8 1.34,-8.54 4.01,-11.21 2.68,-2.67 6.4,-4.01 11.17,-4.01 4.9,0 8.67,1.32 11.32,3.94 2.64,2.63 3.97,6.31 3.97,11.04 0,3.44 -0.58,6.26 -1.74,8.46 -1.16,2.19 -2.83,3.91 -5.01,5.13 -2.19,1.23 -4.91,1.84 -8.18,1.84 -3.31,0 -6.05,-0.53 -8.23,-1.59 -2.17,-1.06 -3.93,-2.73 -5.29,-5.01 -1.35,-2.29 -2.02,-5.15 -2.02,-8.59zm9.09 0.04c0,2.97 0.55,5.1 1.65,6.4 1.1,1.3 2.61,1.95 4.5,1.95 1.95,0 3.47,-0.64 4.54,-1.91 1.06,-1.27 1.6,-3.55 1.6,-6.84 0,-2.77 -0.56,-4.79 -1.67,-6.07 -1.12,-1.27 -2.63,-1.91 -4.55,-1.91 -1.83,0 -3.3,0.65 -4.41,1.95 -1.11,1.29 -1.66,3.44 -1.66,6.43zm26.27 -14.76l9.09 0 0 22.16 14.18 0 0 7.25 -23.27 0 0 -29.41zm25.55 14.72c0,-4.8 1.34,-8.54 4.01,-11.21 2.68,-2.67 6.4,-4.01 11.18,-4.01 4.89,0 8.66,1.32 11.31,3.94 2.64,2.63 3.97,6.31 3.97,11.04 0,3.44 -0.58,6.26 -1.74,8.46 -1.15,2.19 -2.82,3.91 -5.01,5.13 -2.19,1.23 -4.91,1.84 -8.17,1.84 -3.32,0 -6.06,-0.53 -8.24,-1.59 -2.17,-1.06 -3.93,-2.73 -5.28,-5.01 -1.35,-2.29 -2.03,-5.15 -2.03,-8.59zm9.09 0.04c0,2.97 0.55,5.1 1.65,6.4 1.1,1.3 2.61,1.95 4.51,1.95 1.95,0 3.46,-0.64 4.53,-1.91 1.07,-1.27 1.61,-3.55 1.61,-6.84 0,-2.77 -0.56,-4.79 -1.68,-6.07 -1.12,-1.27 -2.63,-1.91 -4.55,-1.91 -1.82,0 -3.3,0.65 -4.41,1.95 -1.1,1.29 -1.66,3.44 -1.66,6.43zm41.06 3.99l0 -6.11 14.03 0 0 12.53c-2.68,1.83 -5.06,3.09 -7.12,3.74 -2.07,0.67 -4.52,1 -7.36,1 -3.49,0 -6.33,-0.6 -8.53,-1.79 -2.2,-1.19 -3.91,-2.96 -5.11,-5.31 -1.21,-2.36 -1.82,-5.06 -1.82,-8.1 0,-3.21 0.66,-6.01 1.98,-8.38 1.33,-2.37 3.27,-4.17 5.82,-5.41 2,-0.95 4.68,-1.42 8.05,-1.42 3.24,0 5.67,0.3 7.29,0.88 1.61,0.59 2.94,1.5 4.01,2.74 1.06,1.23 1.86,2.8 2.4,4.71l-8.77 1.56c-0.36,-1.11 -0.98,-1.96 -1.84,-2.55 -0.85,-0.59 -1.96,-0.88 -3.29,-0.88 -1.99,0 -3.58,0.69 -4.76,2.07 -1.19,1.39 -1.79,3.57 -1.79,6.57 0,3.19 0.61,5.46 1.81,6.82 1.19,1.37 2.86,2.05 5,2.05 1.01,0 1.98,-0.15 2.9,-0.45 0.93,-0.29 1.99,-0.79 3.17,-1.49l0 -2.78 -6.07 0zm16.47 -18.75l10.09 0 5.93 9.93 5.94 -9.93 10.03 0 -11.43 17.09 0 12.32 -9.11 0 0 -12.32 -11.45 -17.09z"/>
    <path class="fil0" d="M1146.09 1665.84c0,3.67 -1.78,5.97 -5.34,6.91 -1.31,0.34 -4.51,0.51 -9.61,0.51l0 -3.15c2.4,0 4.08,-0.34 5.06,-1.01 0.97,-0.67 1.46,-1.76 1.46,-3.26 0,-1.98 -1.11,-2.98 -3.32,-2.98l-2.02 0 0 3.99c0,2.47 -1.76,4.31 -5.28,5.51 -2.36,0.79 -4.91,1.18 -7.64,1.18 -3.26,0 -6.04,-0.56 -8.32,-1.69 -2.85,-1.35 -4.27,-3.33 -4.27,-5.95 0,-3.34 1.8,-5.47 5.39,-6.41l0 -8.37 29.56 0 0 3.31 -9.44 0 0 4.67 5.62 0c2.17,0 3.99,0.47 5.45,1.4 1.8,1.2 2.7,2.98 2.7,5.34zm-22.48 -6.74l0 -4.89 -3.15 0 0 4.89 3.15 0zm0 7.08l0 -3.77 -3.48 0c-2.89,0 -4.33,1.39 -4.33,4.16 0,1.16 0.38,2.06 1.15,2.7 0.77,0.64 1.73,0.95 2.9,0.95 2.51,0 3.76,-1.34 3.76,-4.04zm108.12 6.68l-8.43 0 0 -22.3c0,-2.1 -0.9,-3.15 -2.7,-3.15 -1.24,0 -2.08,0.21 -2.53,0.65 -0.45,0.43 -0.67,1.2 -0.67,2.33l0 1.4 4.89 0 0 3.26 -4.89 0 0 17.81 -8.43 0 0 -17.81 -4.67 0c-0.11,0 -0.61,0 -1.51,0 2.43,1.82 3.65,4.18 3.65,7.07 0,3.82 -1.27,6.64 -3.82,8.46 -2.1,1.53 -4.97,2.28 -8.6,2.28 -2.02,0 -3.83,-0.47 -5.42,-1.44 -1.59,-0.96 -2.76,-2.28 -3.51,-3.95 -1.84,3.6 -5.16,5.39 -9.95,5.39 -4.46,0 -7.6,-1.49 -9.44,-4.49 -0.56,1.72 -1.67,2.9 -3.32,3.54 -1.31,0.52 -3.16,0.79 -5.56,0.79 -2.73,0 -4.91,-0.93 -6.52,-2.79 -1.61,-1.85 -2.41,-4.41 -2.41,-7.67 0,-4.23 1.74,-7.19 5.22,-8.88 3,-1.42 8.04,-2.13 15.12,-2.13 3.37,0 6.18,0.26 8.43,0.79 2.73,-0.5 5.58,-0.76 8.54,-0.79 4.16,-0.07 7.79,0.23 10.9,0.9 1.57,-0.22 3.28,-0.34 5.11,-0.34l7.76 0 0 -0.17c0,-2.99 1.27,-5.03 3.82,-6.12 1.68,-0.75 4.29,-1.12 7.81,-1.12 3.33,0 5.84,0.43 7.53,1.29 2.4,1.2 3.6,3.33 3.6,6.4l0 20.79zm-42.04 -18.76c-0.71,-0.08 -1.81,-0.12 -3.31,-0.12 -2.06,0 -3.6,0.04 -4.61,0.12 1.69,1.05 2.87,2.4 3.54,4.04 0.94,-1.71 2.4,-3.06 4.38,-4.04zm-19.05 0.04c-0.82,-0.1 -1.7,-0.16 -2.64,-0.16 -6.89,0 -10.84,2.04 -11.85,6.13 1.16,-0.64 2.56,-0.96 4.21,-0.96 1.69,0 3.09,0.57 4.22,1.69 0.59,-2.83 2.62,-5.06 6.06,-6.7zm7.37 8.36c0,-2.93 -0.89,-5.13 -2.65,-6.61 -1.79,1.36 -2.69,3.47 -2.69,6.33 0,4.96 0.75,7.44 2.24,7.44 2.07,0 3.1,-2.39 3.1,-7.16zm19.89 1.23c0,-3.51 -0.77,-6.03 -2.31,-7.56 -2.17,1.38 -3.26,3.83 -3.26,7.34 0,4.1 0.75,6.15 2.25,6.15 2.21,0 3.32,-1.97 3.32,-5.93zm-38.44 2.17c0,-2.59 -0.62,-3.88 -1.85,-3.88 -0.57,0 -1.15,0.34 -1.74,1.01 0,2.21 0.07,3.73 0.22,4.55 0.22,1.58 0.73,2.36 1.52,2.36 0.86,0 1.42,-0.45 1.68,-1.35 0.12,-0.48 0.17,-1.38 0.17,-2.69zm139.19 6.96l-7.98 0 0 -22.7c0,-2.21 -1.06,-3.31 -3.2,-3.31 -1.24,0 -2.06,0.35 -2.47,1.07 -0.27,0.44 -0.4,1.23 -0.4,2.36l0 1.12 4.78 0 0 3.15 -4.78 0 0 18.31 -8.14 0 0 -18.31 -6.07 0c2.28,1.72 3.43,4.25 3.43,7.58 0,3.71 -1.28,6.6 -3.83,8.66 -2.28,1.87 -5.2,2.8 -8.76,2.8 -3.75,0 -6.61,-1.68 -8.6,-5.05 -0.9,3.03 -3.93,4.55 -9.1,4.55 -2.85,0 -5.08,-0.99 -6.69,-2.98 -1.5,-1.8 -2.25,-4.18 -2.25,-7.14 0,-7.9 6.54,-11.85 19.61,-11.85 3.3,0 6.07,0.19 8.32,0.56 1.39,-0.19 2.7,-0.28 3.93,-0.28l10.01 0 0 -1.07c0,-2.36 1.4,-4.12 4.21,-5.28 2.1,-0.9 4.61,-1.35 7.53,-1.35 2.96,0 5.39,0.62 7.31,1.85 2.09,1.35 3.14,3.23 3.14,5.62l0 21.69zm-42.03 -19.27l-1.24 0c-3.44,0 -6.35,0.58 -8.71,1.74 -2.54,1.28 -3.84,2.91 -3.87,4.89 1.04,-0.64 2.26,-0.95 3.65,-0.95 1.98,0 3.65,0.73 5,2.19 0.64,-3.64 2.36,-6.26 5.17,-7.87zm8.88 9.83c0,-4.08 -0.94,-6.81 -2.81,-8.2 -2.17,1.09 -3.26,3.88 -3.26,8.37 0,4.54 0.97,6.8 2.92,6.8 0.9,0 1.67,-0.78 2.3,-2.36 0.57,-1.42 0.85,-2.96 0.85,-4.61zm-19.22 2.7c0,-2.51 -0.6,-3.76 -1.8,-3.76 -0.64,0 -1.37,0.45 -2.19,1.36 0,4.45 0.67,6.67 2.02,6.67 1.31,0 1.97,-1.42 1.97,-4.27zm98.68 6.91l-8.88 0 0 -15.17c0,-2.4 -0.51,-4.16 -1.52,-5.28 -1.01,-1.12 -2.68,-1.69 -5,-1.69 -5.62,0 -8.43,3.11 -8.43,9.33l0 0.56c0.82,-1.12 2.21,-1.68 4.16,-1.68 4.68,0 7.02,2.36 7.02,7.08 0,2.17 -0.85,3.89 -2.56,5.17 -1.7,1.27 -3.79,1.91 -6.26,1.91 -3.48,0 -6.16,-1.09 -8.04,-3.26 -1.68,-1.95 -2.52,-4.5 -2.52,-7.64 0,-9.44 5.39,-14.16 16.18,-14.16 4.5,0 8.09,0.65 10.79,1.96 3.37,1.61 5.06,4.14 5.06,7.59l0 15.28zm-20.12 -6.4c0,-2.74 -0.56,-4.11 -1.69,-4.11 -0.82,0 -1.5,0.7 -2.02,2.08 0.07,3.9 0.79,5.85 2.13,5.85 0.79,0 1.28,-0.45 1.47,-1.35 0.07,-0.34 0.11,-1.16 0.11,-2.47zm51.91 6.23l-27.98 0 0 -21.74 8.48 0 0 18.2 19.5 0 0 3.54zm29.12 -23.93l-13.26 0c0,-1.76 0.63,-3.16 1.88,-4.19 1.26,-1.03 2.88,-1.55 4.86,-1.55 4.35,0 6.52,1.92 6.52,5.74zm11.29 16.85c0,3.68 -1.78,5.98 -5.33,6.92 -1.32,0.33 -4.52,0.5 -9.61,0.5l0 -3.14c2.39,0 4.08,-0.34 5.05,-1.02 0.98,-0.67 1.47,-1.76 1.47,-3.26 0,-1.98 -1.11,-2.97 -3.32,-2.97l-2.02 0 0 3.99c0,2.47 -1.76,4.3 -5.29,5.5 -2.36,0.79 -4.9,1.18 -7.64,1.18 -3.26,0 -6.03,-0.56 -8.31,-1.68 -2.85,-1.35 -4.27,-3.34 -4.27,-5.96 0,-3.33 1.79,-5.47 5.39,-6.41l0 -8.37 29.56 0 0 3.32 -9.44 0 0 4.66 5.62 0c2.17,0 3.99,0.47 5.45,1.41 1.79,1.19 2.69,2.97 2.69,5.33zm-22.47 -6.74l0 -4.89 -3.15 0 0 4.89 3.15 0zm0 7.08l0 -3.76 -3.49 0c-2.88,0 -4.32,1.38 -4.32,4.16 0,1.16 0.38,2.06 1.15,2.69 0.77,0.64 1.73,0.96 2.89,0.96 2.51,0 3.77,-1.35 3.77,-4.05zm79.67 -11.91l-5 0 0 18.6 -8.32 0 0 -18.6 -7.53 0c3.15,2.06 4.72,4.92 4.72,8.6 0,3.07 -1.09,5.5 -3.29,7.3 -2.19,1.8 -5.12,2.7 -8.79,2.7 -1.91,0 -3.68,-0.43 -5.31,-1.3 -1.63,-0.87 -2.88,-2.04 -3.74,-3.48 -0.9,3.41 -3.89,5.12 -8.99,5.12 -2.81,0 -5.06,-0.91 -6.74,-2.73 -1.69,-1.82 -2.53,-4.41 -2.53,-7.78 0,-4.42 1.95,-7.53 5.84,-9.33 3.26,-1.46 8.43,-2.19 15.51,-2.19 2.48,0 4.72,0.2 6.75,0.62 1.87,-0.42 3.87,-0.62 6.01,-0.62l21.41 0 0 3.09zm-32.99 -0.45c-0.33,-0.04 -0.86,-0.06 -1.57,-0.06 -7.6,0 -11.82,2.38 -12.64,7.14 1.08,-1.01 2.62,-1.52 4.61,-1.52 1.91,0 3.37,0.68 4.38,2.02 0.56,-3.28 2.3,-5.81 5.22,-7.58zm8.43 9.97c0,-3.77 -0.88,-6.44 -2.64,-8 -2.1,1.37 -3.14,3.99 -3.14,7.83 0,3.99 0.97,5.99 2.92,5.99 0.86,0 1.57,-0.66 2.13,-1.96 0.49,-1.16 0.73,-2.44 0.73,-3.86zm-19.1 2.67c0,-2.66 -0.73,-3.99 -2.19,-3.99 -0.53,0 -1.03,0.53 -1.52,1.58 -0.04,0.48 -0.06,1.21 -0.06,2.19 0,2.7 0.62,4.04 1.86,4.04 1.27,0 1.91,-1.27 1.91,-3.82zm72.77 -11.8l-4.44 0 0 18.26 -8.54 0 0 -18.26 -5.45 0 0 18.26 -8.26 0 0 -21.63 26.69 0 0 3.37zm43.55 6.74c0,3.83 -1.23,6.77 -3.68,8.83 -2.46,2.06 -5.73,3.09 -9.81,3.09 -2.7,0 -4.85,-0.49 -6.46,-1.46 -1.84,-1.13 -2.76,-2.77 -2.76,-4.95l0 -8.09c0,-1.61 -0.43,-2.86 -1.29,-3.74 -0.86,-0.88 -1.96,-1.32 -3.31,-1.32 -4.46,0 -6.84,2.4 -7.14,7.2 1.24,-1.13 2.79,-1.65 4.66,-1.58 4.28,0.15 6.41,2.34 6.41,6.58 0,4.91 -3.03,7.36 -9.1,7.36 -6.52,0 -9.78,-3.43 -9.78,-10.29 0,-8.05 5.51,-12.08 16.52,-12.08 7.64,0 11.46,2.51 11.46,7.53l0 8.77c0,1.87 0.87,2.81 2.59,2.81 2.32,0 3.48,-2.7 3.48,-8.09 0,-5.17 -1.27,-7.76 -3.82,-7.76 -0.97,0 -1.83,0.19 -2.58,0.56l0 -3.31c4.57,0 5.97,-0.02 4.21,-0.06 1.72,0.04 3.15,0.28 4.27,0.73 4.09,1.65 6.13,4.74 6.13,9.27zm-30.57 4.73c0,-0.94 -0.16,-1.78 -0.48,-2.51 -0.32,-0.73 -0.72,-1.09 -1.21,-1.09 -1.01,0 -1.68,0.77 -2.02,2.3 0.07,0.68 0.11,1.22 0.11,1.63 0,1.01 0.17,1.91 0.51,2.7 0.41,0.9 0.95,1.35 1.63,1.35 0.71,0 1.16,-0.51 1.35,-1.52 0.07,-0.37 0.11,-1.33 0.11,-2.86zm86.55 6.51l-8.32 0 0 -22.19c0,-3.22 -1.11,-4.84 -3.32,-4.84 -0.93,0 -1.74,0.28 -2.41,0.82 -0.68,0.54 -1.01,1.25 -1.01,2.11l0 3.71c2.84,1.31 4.27,3.52 4.27,6.63 0,1.08 -0.28,2 -0.85,2.75 -0.33,0.45 -1.01,1.09 -2.02,1.91 0.86,0.41 1.42,0.73 1.69,0.96 0.67,0.63 1.01,1.55 1.01,2.75 0,4.16 -4.01,6.24 -12.03,6.24l-6.63 0 0 -2.81c-2.4,2.02 -6.03,3.03 -10.9,3.03 -9.25,0 -13.88,-2.21 -13.88,-6.63 0,-1.98 1.29,-3.33 3.88,-4.05 -2.44,-0.82 -3.65,-2.64 -3.65,-5.45 0,-4.38 4.81,-6.57 14.44,-6.57 5.88,0 9.23,0.73 10.06,2.19 1.23,-1.35 3.57,-2.06 7.02,-2.13l0 -1.86c0,-4.31 3.71,-6.46 11.13,-6.46 3.44,0 5.99,0.39 7.64,1.17 2.58,1.26 3.88,3.65 3.88,7.15l0 21.57zm-19.34 -14.66c0,-2.55 -1.03,-3.82 -3.09,-3.82 -0.75,0 -1.38,0.23 -1.91,0.7 -0.52,0.47 -0.78,1.08 -0.78,1.82l0 4.22 -9.22 0 0 -3.65c0,-1.2 -0.58,-2.16 -1.74,-2.87 -0.98,-0.6 -2.19,-0.9 -3.65,-0.9 -2.89,-0.03 -4.67,0.81 -5.34,2.53 0.19,-0.94 1.42,-1.33 3.71,-1.18 3.78,0.22 5.67,1.58 5.67,4.07 0,1.62 -0.8,2.85 -2.41,3.68l12.02 0c1.87,0 3.43,-0.37 4.66,-1.12 1.39,-0.82 2.08,-1.98 2.08,-3.48zm-23.71 1.29c0,-1.24 -0.37,-1.85 -1.12,-1.85 -0.98,0 -1.46,0.69 -1.46,2.07 0,1.28 0.44,1.91 1.34,1.91 0.83,0 1.24,-0.71 1.24,-2.13zm23.38 8.49c0,-1.54 -0.96,-2.31 -2.87,-2.31 -1.46,0 -2.72,0.58 -3.79,1.74 -1.07,1.16 -2.15,2.33 -3.23,3.49l5.11 0c0.9,0 1.84,-0.21 2.81,-0.62 1.31,-0.53 1.97,-1.29 1.97,-2.3zm-14.33 -2.14l-5.17 0c-3.41,0 -5.12,0.86 -5.12,2.59 0,0.78 0.33,1.46 0.99,2.02 0.65,0.56 1.49,0.84 2.5,0.84 1.65,0 2.92,-0.77 3.82,-2.3 1.09,-1.76 2.08,-2.81 2.98,-3.15z"/>
    <path class="fil1" d="M1111.35 1709.69l-2.64 0c-1.39,-2.02 -2.45,-4.12 -3.18,-6.3 -0.73,-2.17 -1.09,-4.28 -1.09,-6.32 0,-2.52 0.45,-4.91 1.35,-7.17 0.78,-1.96 1.78,-3.76 2.98,-5.42l2.62 0c-1.25,2.65 -2.1,4.91 -2.57,6.76 -0.47,1.86 -0.71,3.83 -0.71,5.91 0,1.44 0.14,2.9 0.42,4.41 0.28,1.5 0.66,2.93 1.14,4.29 0.32,0.89 0.88,2.17 1.68,3.84zm2.98 -5.65l0 -19.23 14.85 0 0 3.25 -10.8 0 0 4.27 10.05 0 0 3.23 -10.05 0 0 5.24 11.18 0 0 3.24 -15.23 0zm18.64 0l0 -19.23 3.84 0 0 19.23 -3.84 0zm16.17 -4.43l3.83 0.61c-0.49,1.35 -1.27,2.37 -2.33,3.07 -1.06,0.71 -2.39,1.06 -3.98,1.06 -2.53,0 -4.39,-0.79 -5.61,-2.37 -0.95,-1.27 -1.43,-2.87 -1.43,-4.8 0,-2.31 0.63,-4.12 1.89,-5.43 1.25,-1.3 2.84,-1.96 4.76,-1.96 2.16,0 3.87,0.69 5.12,2.06 1.24,1.37 1.84,3.46 1.79,6.29l-9.62 0c0.02,1.09 0.33,1.94 0.92,2.54 0.6,0.61 1.34,0.92 2.22,0.92 0.6,0 1.1,-0.16 1.51,-0.47 0.41,-0.32 0.73,-0.83 0.93,-1.52zm0.22 -3.73c-0.03,-1.07 -0.31,-1.88 -0.86,-2.43 -0.54,-0.56 -1.21,-0.84 -1.99,-0.84 -0.84,0 -1.53,0.3 -2.08,0.89 -0.54,0.58 -0.81,1.37 -0.81,2.38l5.74 0zm19.6 -1.65l-3.79 0.65c-0.12,-0.72 -0.41,-1.27 -0.87,-1.64 -0.45,-0.36 -1.03,-0.55 -1.75,-0.55 -0.96,0 -1.72,0.32 -2.29,0.95 -0.57,0.64 -0.85,1.7 -0.85,3.19 0,1.65 0.29,2.82 0.86,3.5 0.58,0.68 1.36,1.02 2.33,1.02 0.73,0 1.33,-0.2 1.79,-0.6 0.47,-0.4 0.8,-1.08 0.99,-2.05l3.77 0.62c-0.39,1.66 -1.15,2.91 -2.26,3.76 -1.11,0.85 -2.6,1.27 -4.47,1.27 -2.12,0 -3.81,-0.64 -5.07,-1.92 -1.26,-1.29 -1.89,-3.07 -1.89,-5.34 0,-2.3 0.63,-4.09 1.9,-5.37 1.26,-1.29 2.98,-1.93 5.14,-1.93 1.76,0 3.17,0.37 4.21,1.1 1.04,0.73 1.79,1.84 2.25,3.34zm9.56 -4.12l0 2.94 -2.62 0 0 5.61c0,1.14 0.02,1.8 0.07,1.99 0.05,0.19 0.16,0.34 0.34,0.46 0.18,0.13 0.4,0.19 0.65,0.19 0.36,0 0.87,-0.12 1.55,-0.36l0.33 2.86c-0.9,0.37 -1.91,0.55 -3.04,0.55 -0.69,0 -1.32,-0.11 -1.87,-0.33 -0.56,-0.22 -0.96,-0.51 -1.22,-0.87 -0.26,-0.35 -0.44,-0.83 -0.54,-1.44 -0.08,-0.42 -0.12,-1.29 -0.12,-2.59l0 -6.07 -1.77 0 0 -2.94 1.77 0 0 -2.77 3.85 -2.15 0 4.92 2.62 0zm6.34 13.93l-3.84 0 0 -13.93 3.57 0 0 1.98c0.61,-0.94 1.16,-1.55 1.64,-1.85 0.49,-0.3 1.04,-0.45 1.66,-0.45 0.88,0 1.72,0.24 2.53,0.7l-1.19 3.21c-0.64,-0.4 -1.24,-0.6 -1.8,-0.6 -0.54,0 -0.99,0.14 -1.37,0.43 -0.37,0.28 -0.66,0.79 -0.88,1.54 -0.21,0.74 -0.32,2.3 -0.32,4.67l0 4.3zm6.33 -7.16c0,-1.23 0.31,-2.41 0.94,-3.56 0.63,-1.14 1.52,-2.02 2.67,-2.62 1.15,-0.6 2.44,-0.91 3.86,-0.91 2.19,0 3.99,0.69 5.4,2.06 1.4,1.37 2.1,3.1 2.1,5.19 0,2.1 -0.71,3.85 -2.12,5.23 -1.42,1.39 -3.2,2.08 -5.35,2.08 -1.33,0 -2.6,-0.29 -3.81,-0.86 -1.2,-0.58 -2.12,-1.43 -2.75,-2.54 -0.63,-1.12 -0.94,-2.47 -0.94,-4.07zm3.93 0.19c0,1.39 0.34,2.44 1.03,3.18 0.68,0.73 1.52,1.1 2.52,1.1 1.01,0 1.85,-0.37 2.52,-1.1 0.68,-0.74 1.03,-1.8 1.03,-3.2 0,-1.36 -0.35,-2.42 -1.03,-3.15 -0.67,-0.74 -1.51,-1.1 -2.52,-1.1 -1,0 -1.84,0.36 -2.52,1.1 -0.69,0.73 -1.03,1.79 -1.03,3.17zm27.25 6.97l-3.84 0 0 -7.11c0,-1.5 -0.08,-2.48 -0.25,-2.92 -0.16,-0.44 -0.43,-0.78 -0.8,-1.03 -0.37,-0.24 -0.81,-0.37 -1.33,-0.37 -0.67,0 -1.26,0.18 -1.79,0.53 -0.53,0.35 -0.89,0.81 -1.09,1.39 -0.19,0.58 -0.29,1.64 -0.29,3.2l0 6.31 -3.84 0 0 -13.93 3.56 0 0 2.05c1.27,-1.58 2.87,-2.37 4.79,-2.37 0.84,0 1.62,0.15 2.32,0.44 0.7,0.3 1.23,0.67 1.59,1.13 0.36,0.45 0.61,0.97 0.75,1.54 0.15,0.58 0.22,1.41 0.22,2.48l0 8.66zm3.89 -15.82l0 -3.41 3.84 0 0 3.41 -3.84 0zm0 15.82l0 -13.93 3.84 0 0 13.93 -3.84 0zm20.43 -9.81l-3.79 0.65c-0.13,-0.72 -0.41,-1.27 -0.87,-1.64 -0.45,-0.36 -1.03,-0.55 -1.75,-0.55 -0.96,0 -1.72,0.32 -2.29,0.95 -0.57,0.64 -0.85,1.7 -0.85,3.19 0,1.65 0.29,2.82 0.86,3.5 0.58,0.68 1.36,1.02 2.33,1.02 0.73,0 1.33,-0.2 1.79,-0.6 0.47,-0.4 0.8,-1.08 0.99,-2.05l3.77 0.62c-0.39,1.66 -1.15,2.91 -2.26,3.76 -1.11,0.85 -2.6,1.27 -4.47,1.27 -2.12,0 -3.81,-0.64 -5.07,-1.92 -1.26,-1.29 -1.89,-3.07 -1.89,-5.34 0,-2.3 0.63,-4.09 1.89,-5.37 1.27,-1.29 2.98,-1.93 5.14,-1.93 1.77,0 3.17,0.37 4.22,1.1 1.04,0.73 1.79,1.84 2.25,3.34zm23.53 2.74l3.91 1.19c-0.6,2.1 -1.6,3.66 -3,4.68 -1.39,1.01 -3.17,1.52 -5.32,1.52 -2.66,0 -4.84,-0.87 -6.55,-2.61 -1.72,-1.75 -2.57,-4.13 -2.57,-7.15 0,-3.2 0.86,-5.69 2.58,-7.46 1.72,-1.77 3.98,-2.66 6.79,-2.66 2.45,0 4.44,0.7 5.97,2.09 0.91,0.82 1.6,2 2.05,3.54l-4 0.92c-0.24,-1 -0.73,-1.79 -1.49,-2.36 -0.75,-0.58 -1.66,-0.87 -2.74,-0.87 -1.48,0 -2.69,0.51 -3.61,1.54 -0.92,1.02 -1.38,2.67 -1.38,4.97 0,2.43 0.45,4.16 1.36,5.19 0.91,1.03 2.1,1.55 3.55,1.55 1.08,0 2,-0.33 2.78,-0.99 0.77,-0.65 1.33,-1.68 1.67,-3.09zm11.18 -12.16l0 7.07c1.24,-1.39 2.72,-2.09 4.44,-2.09 0.89,0 1.68,0.16 2.4,0.48 0.71,0.31 1.24,0.71 1.6,1.2 0.36,0.49 0.61,1.04 0.74,1.63 0.13,0.59 0.2,1.52 0.2,2.77l0 8.17 -3.84 0 0 -7.36c0,-1.46 -0.07,-2.39 -0.22,-2.78 -0.15,-0.4 -0.41,-0.7 -0.77,-0.94 -0.37,-0.23 -0.83,-0.35 -1.39,-0.35 -0.64,0 -1.21,0.15 -1.71,0.45 -0.5,0.3 -0.87,0.74 -1.1,1.34 -0.23,0.6 -0.35,1.49 -0.35,2.66l0 6.98 -3.83 0 0 -19.23 3.83 0zm13.27 3.41l0 -3.41 3.84 0 0 3.41 -3.84 0zm0 15.82l0 -13.93 3.84 0 0 13.93 -3.84 0zm7.66 -13.93l3.59 0 0 2.05c0.46,-0.71 1.09,-1.27 1.88,-1.71 0.79,-0.44 1.67,-0.66 2.64,-0.66 1.68,0 3.11,0.64 4.29,1.91 1.17,1.26 1.76,3.03 1.76,5.3 0,2.32 -0.59,4.13 -1.77,5.42 -1.19,1.29 -2.63,1.93 -4.31,1.93 -0.8,0 -1.53,-0.15 -2.18,-0.46 -0.65,-0.3 -1.34,-0.83 -2.06,-1.57l0 7.02 -3.84 0 0 -19.23zm3.81 6.73c0,1.56 0.32,2.72 0.96,3.46 0.65,0.75 1.44,1.13 2.37,1.13 0.89,0 1.63,-0.35 2.22,-1.03 0.6,-0.69 0.9,-1.81 0.9,-3.38 0,-1.46 -0.31,-2.54 -0.92,-3.25 -0.61,-0.71 -1.37,-1.06 -2.27,-1.06 -0.94,0 -1.72,0.34 -2.34,1.04 -0.62,0.69 -0.92,1.72 -0.92,3.09zm21.31 7.2l0 -19.07 4.04 0 0 15.83 10.06 0 0 3.24 -14.1 0zm25.35 -4.43l3.83 0.61c-0.49,1.35 -1.27,2.37 -2.33,3.07 -1.06,0.71 -2.39,1.06 -3.98,1.06 -2.53,0 -4.39,-0.79 -5.6,-2.37 -0.96,-1.27 -1.44,-2.87 -1.44,-4.8 0,-2.31 0.63,-4.12 1.89,-5.43 1.25,-1.3 2.84,-1.96 4.77,-1.96 2.16,0 3.86,0.69 5.11,2.06 1.24,1.37 1.84,3.46 1.79,6.29l-9.62 0c0.02,1.09 0.33,1.94 0.92,2.54 0.6,0.61 1.34,0.92 2.22,0.92 0.6,0 1.11,-0.16 1.52,-0.47 0.41,-0.32 0.72,-0.83 0.92,-1.52zm0.22 -3.73c-0.02,-1.07 -0.31,-1.88 -0.86,-2.43 -0.54,-0.56 -1.21,-0.84 -1.99,-0.84 -0.84,0 -1.53,0.3 -2.08,0.89 -0.54,0.58 -0.81,1.37 -0.8,2.38l5.73 0zm10.93 8.16l-5.84 -13.93 4.03 0 2.73 7.11 0.79 2.37c0.21,-0.6 0.35,-1 0.4,-1.19 0.13,-0.4 0.26,-0.79 0.41,-1.18l2.76 -7.11 3.95 0 -5.77 13.93 -3.46 0zm19.98 -4.43l3.83 0.61c-0.5,1.35 -1.27,2.37 -2.33,3.07 -1.06,0.71 -2.39,1.06 -3.99,1.06 -2.52,0 -4.38,-0.79 -5.6,-2.37 -0.95,-1.27 -1.43,-2.87 -1.43,-4.8 0,-2.31 0.63,-4.12 1.88,-5.43 1.26,-1.3 2.85,-1.96 4.77,-1.96 2.16,0 3.86,0.69 5.11,2.06 1.25,1.37 1.84,3.46 1.79,6.29l-9.62 0c0.03,1.09 0.34,1.94 0.93,2.54 0.59,0.61 1.33,0.92 2.22,0.92 0.6,0 1.1,-0.16 1.51,-0.47 0.41,-0.32 0.72,-0.83 0.93,-1.52zm0.22 -3.73c-0.03,-1.07 -0.31,-1.88 -0.86,-2.43 -0.55,-0.56 -1.21,-0.84 -2,-0.84 -0.84,0 -1.53,0.3 -2.07,0.89 -0.55,0.58 -0.82,1.37 -0.81,2.38l5.74 0zm6.94 8.16l0 -19.23 3.84 0 0 19.23 -3.84 0zm14.55 -6.26l3.94 -0.37c0.23,1.27 0.71,2.2 1.44,2.8 0.72,0.59 1.7,0.89 2.93,0.89 1.3,0 2.29,-0.26 2.94,-0.8 0.67,-0.52 1,-1.14 1,-1.85 0,-0.45 -0.14,-0.84 -0.42,-1.16 -0.28,-0.32 -0.76,-0.6 -1.46,-0.83 -0.47,-0.16 -1.55,-0.44 -3.24,-0.84 -2.16,-0.52 -3.68,-1.15 -4.56,-1.91 -1.23,-1.05 -1.84,-2.34 -1.84,-3.86 0,-0.98 0.29,-1.9 0.86,-2.75 0.58,-0.85 1.42,-1.5 2.5,-1.95 1.09,-0.44 2.41,-0.67 3.94,-0.67 2.52,0 4.41,0.53 5.68,1.59 1.27,1.06 1.94,2.47 2.01,4.24l-4.05 0.17c-0.17,-0.99 -0.54,-1.7 -1.11,-2.13 -0.57,-0.44 -1.43,-0.65 -2.56,-0.65 -1.18,0 -2.1,0.23 -2.76,0.69 -0.43,0.3 -0.65,0.7 -0.65,1.19 0,0.46 0.2,0.85 0.61,1.17 0.5,0.41 1.74,0.84 3.71,1.29 1.97,0.44 3.42,0.9 4.37,1.38 0.94,0.48 1.68,1.13 2.21,1.96 0.53,0.82 0.8,1.84 0.8,3.06 0,1.1 -0.32,2.13 -0.96,3.09 -0.64,0.96 -1.54,1.68 -2.7,2.15 -1.17,0.47 -2.62,0.7 -4.36,0.7 -2.53,0 -4.48,-0.56 -5.84,-1.69 -1.35,-1.12 -2.16,-2.76 -2.43,-4.91zm28.07 1.83l3.82 0.61c-0.49,1.35 -1.26,2.37 -2.33,3.07 -1.06,0.71 -2.39,1.06 -3.98,1.06 -2.52,0 -4.39,-0.79 -5.6,-2.37 -0.96,-1.27 -1.44,-2.87 -1.44,-4.8 0,-2.31 0.63,-4.12 1.89,-5.43 1.26,-1.3 2.85,-1.96 4.77,-1.96 2.16,0 3.86,0.69 5.11,2.06 1.24,1.37 1.84,3.46 1.79,6.29l-9.62 0c0.03,1.09 0.33,1.94 0.93,2.54 0.59,0.61 1.33,0.92 2.21,0.92 0.6,0 1.11,-0.16 1.52,-0.47 0.41,-0.32 0.72,-0.83 0.93,-1.52zm0.21 -3.73c-0.02,-1.07 -0.31,-1.88 -0.85,-2.43 -0.55,-0.56 -1.22,-0.84 -2,-0.84 -0.84,0 -1.53,0.3 -2.08,0.89 -0.54,0.58 -0.81,1.37 -0.8,2.38l5.73 0zm10.62 8.16l-3.83 0 0 -13.93 3.56 0 0 1.98c0.61,-0.94 1.16,-1.55 1.64,-1.85 0.49,-0.3 1.04,-0.45 1.67,-0.45 0.87,0 1.71,0.24 2.52,0.7l-1.19 3.21c-0.64,-0.4 -1.24,-0.6 -1.8,-0.6 -0.54,0 -0.99,0.14 -1.36,0.43 -0.38,0.28 -0.67,0.79 -0.89,1.54 -0.21,0.74 -0.32,2.3 -0.32,4.67l0 4.3zm11.21 0l-5.85 -13.93 4.03 0 2.73 7.11 0.79 2.37c0.21,-0.6 0.35,-1 0.4,-1.19 0.13,-0.4 0.27,-0.79 0.41,-1.18l2.76 -7.11 3.95 0 -5.77 13.93 -3.45 0zm11.57 -15.82l0 -3.41 3.84 0 0 3.41 -3.84 0zm0 15.82l0 -13.93 3.84 0 0 13.93 -3.84 0zm20.43 -9.81l-3.79 0.65c-0.12,-0.72 -0.41,-1.27 -0.87,-1.64 -0.45,-0.36 -1.03,-0.55 -1.75,-0.55 -0.96,0 -1.72,0.32 -2.29,0.95 -0.57,0.64 -0.85,1.7 -0.85,3.19 0,1.65 0.29,2.82 0.86,3.5 0.58,0.68 1.36,1.02 2.33,1.02 0.73,0 1.33,-0.2 1.79,-0.6 0.47,-0.4 0.8,-1.08 0.99,-2.05l3.77 0.62c-0.39,1.66 -1.15,2.91 -2.26,3.76 -1.11,0.85 -2.6,1.27 -4.47,1.27 -2.12,0 -3.81,-0.64 -5.07,-1.92 -1.26,-1.29 -1.89,-3.07 -1.89,-5.34 0,-2.3 0.63,-4.09 1.9,-5.37 1.26,-1.29 2.98,-1.93 5.13,-1.93 1.77,0 3.18,0.37 4.22,1.1 1.04,0.73 1.79,1.84 2.25,3.34zm11.31 5.38l3.83 0.61c-0.5,1.35 -1.27,2.37 -2.33,3.07 -1.06,0.71 -2.39,1.06 -3.99,1.06 -2.52,0 -4.39,-0.79 -5.6,-2.37 -0.96,-1.27 -1.43,-2.87 -1.43,-4.8 0,-2.31 0.62,-4.12 1.88,-5.43 1.26,-1.3 2.85,-1.96 4.77,-1.96 2.16,0 3.86,0.69 5.11,2.06 1.25,1.37 1.84,3.46 1.79,6.29l-9.62 0c0.03,1.09 0.34,1.94 0.93,2.54 0.59,0.61 1.33,0.92 2.21,0.92 0.61,0 1.11,-0.16 1.52,-0.47 0.41,-0.32 0.72,-0.83 0.93,-1.52zm0.22 -3.73c-0.03,-1.07 -0.32,-1.88 -0.86,-2.43 -0.55,-0.56 -1.21,-0.84 -2,-0.84 -0.84,0 -1.53,0.3 -2.07,0.89 -0.55,0.58 -0.82,1.37 -0.81,2.38l5.74 0zm27.56 1.09l3.92 1.19c-0.61,2.1 -1.6,3.66 -3,4.68 -1.4,1.01 -3.17,1.52 -5.32,1.52 -2.66,0 -4.85,-0.87 -6.56,-2.61 -1.71,-1.75 -2.57,-4.13 -2.57,-7.15 0,-3.2 0.86,-5.69 2.58,-7.46 1.72,-1.77 3.99,-2.66 6.79,-2.66 2.45,0 4.44,0.7 5.97,2.09 0.92,0.82 1.6,2 2.06,3.54l-4.01 0.92c-0.23,-1 -0.73,-1.79 -1.48,-2.36 -0.75,-0.58 -1.67,-0.87 -2.74,-0.87 -1.48,0 -2.69,0.51 -3.62,1.54 -0.92,1.02 -1.38,2.67 -1.38,4.97 0,2.43 0.45,4.16 1.37,5.19 0.91,1.03 2.09,1.55 3.54,1.55 1.08,0 2.01,-0.33 2.78,-0.99 0.77,-0.65 1.33,-1.68 1.67,-3.09zm15.76 2.64l3.83 0.61c-0.49,1.35 -1.27,2.37 -2.33,3.07 -1.06,0.71 -2.39,1.06 -3.98,1.06 -2.53,0 -4.39,-0.79 -5.6,-2.37 -0.96,-1.27 -1.44,-2.87 -1.44,-4.8 0,-2.31 0.63,-4.12 1.89,-5.43 1.25,-1.3 2.84,-1.96 4.76,-1.96 2.16,0 3.87,0.69 5.12,2.06 1.24,1.37 1.84,3.46 1.79,6.29l-9.62 0c0.02,1.09 0.33,1.94 0.92,2.54 0.6,0.61 1.34,0.92 2.22,0.92 0.6,0 1.1,-0.16 1.52,-0.47 0.41,-0.32 0.72,-0.83 0.92,-1.52zm0.22 -3.73c-0.03,-1.07 -0.31,-1.88 -0.86,-2.43 -0.54,-0.56 -1.21,-0.84 -1.99,-0.84 -0.84,0 -1.53,0.3 -2.08,0.89 -0.54,0.58 -0.81,1.37 -0.8,2.38l5.73 0zm20.14 8.16l-3.83 0 0 -7.11c0,-1.5 -0.09,-2.48 -0.25,-2.92 -0.16,-0.44 -0.43,-0.78 -0.8,-1.03 -0.37,-0.24 -0.81,-0.37 -1.33,-0.37 -0.67,0 -1.27,0.18 -1.79,0.53 -0.53,0.35 -0.89,0.81 -1.09,1.39 -0.19,0.58 -0.29,1.64 -0.29,3.2l0 6.31 -3.84 0 0 -13.93 3.56 0 0 2.05c1.27,-1.58 2.86,-2.37 4.79,-2.37 0.84,0 1.62,0.15 2.32,0.44 0.7,0.3 1.23,0.67 1.59,1.13 0.36,0.45 0.61,0.97 0.75,1.54 0.14,0.58 0.21,1.41 0.21,2.48l0 8.66zm10.55 -13.93l0 2.94 -2.62 0 0 5.61c0,1.14 0.02,1.8 0.07,1.99 0.05,0.19 0.17,0.34 0.34,0.46 0.18,0.13 0.4,0.19 0.65,0.19 0.36,0 0.87,-0.12 1.55,-0.36l0.33 2.86c-0.9,0.37 -1.91,0.55 -3.04,0.55 -0.69,0 -1.32,-0.11 -1.87,-0.33 -0.56,-0.22 -0.96,-0.51 -1.22,-0.87 -0.26,-0.35 -0.44,-0.83 -0.54,-1.44 -0.08,-0.42 -0.12,-1.29 -0.12,-2.59l0 -6.07 -1.77 0 0 -2.94 1.77 0 0 -2.77 3.85 -2.15 0 4.92 2.62 0zm6.34 13.93l-3.84 0 0 -13.93 3.57 0 0 1.98c0.61,-0.94 1.16,-1.55 1.64,-1.85 0.49,-0.3 1.04,-0.45 1.66,-0.45 0.88,0 1.72,0.24 2.53,0.7l-1.19 3.21c-0.64,-0.4 -1.24,-0.6 -1.8,-0.6 -0.54,0 -0.99,0.14 -1.37,0.43 -0.37,0.28 -0.66,0.79 -0.88,1.54 -0.21,0.74 -0.32,2.3 -0.32,4.67l0 4.3zm15.62 -4.43l3.82 0.61c-0.49,1.35 -1.26,2.37 -2.33,3.07 -1.06,0.71 -2.39,1.06 -3.98,1.06 -2.52,0 -4.39,-0.79 -5.6,-2.37 -0.96,-1.27 -1.44,-2.87 -1.44,-4.8 0,-2.31 0.63,-4.12 1.89,-5.43 1.26,-1.3 2.85,-1.96 4.77,-1.96 2.16,0 3.86,0.69 5.11,2.06 1.24,1.37 1.84,3.46 1.79,6.29l-9.62 0c0.03,1.09 0.33,1.94 0.93,2.54 0.59,0.61 1.33,0.92 2.21,0.92 0.6,0 1.11,-0.16 1.52,-0.47 0.41,-0.32 0.72,-0.83 0.93,-1.52zm0.21 -3.73c-0.02,-1.07 -0.31,-1.88 -0.85,-2.43 -0.55,-0.56 -1.22,-0.84 -2,-0.84 -0.84,0 -1.53,0.3 -2.08,0.89 -0.54,0.58 -0.81,1.37 -0.8,2.38l5.73 0zm5.88 13.81c0.76,-1.56 1.29,-2.75 1.6,-3.58 0.31,-0.83 0.6,-1.79 0.86,-2.87 0.26,-1.09 0.46,-2.12 0.59,-3.09 0.13,-0.97 0.19,-1.98 0.19,-3 0,-2.08 -0.23,-4.05 -0.7,-5.91 -0.46,-1.85 -1.32,-4.11 -2.57,-6.76l2.61 0c1.38,1.88 2.45,3.88 3.21,5.98 0.76,2.11 1.14,4.25 1.14,6.42 0,1.83 -0.3,3.78 -0.9,5.87 -0.68,2.34 -1.81,4.66 -3.38,6.94l-2.65 0z"/>
    <g>
     <path class="fil2 str0" d="M1607.77 1587.45c3.85,0 6.97,3.12 6.97,6.97 0,3.85 -3.12,6.96 -6.97,6.96 -3.85,0 -6.97,-3.11 -6.97,-6.96 0,-3.85 3.12,-6.97 6.97,-6.97z"/>
    </g>
    <path class="fil3" d="M1604.53 1598.09l0 -7.35 3.26 0c0.66,0 1.15,0.07 1.49,0.2 0.34,0.13 0.62,0.37 0.82,0.7 0.21,0.33 0.31,0.7 0.31,1.11 0,0.52 -0.17,0.96 -0.51,1.32 -0.34,0.35 -0.86,0.58 -1.56,0.68 0.25,0.12 0.45,0.24 0.58,0.36 0.29,0.26 0.56,0.59 0.81,0.98l1.28 2 -1.23 0 -0.97 -1.53c-0.28,-0.44 -0.51,-0.78 -0.7,-1.01 -0.18,-0.24 -0.35,-0.4 -0.49,-0.49 -0.15,-0.1 -0.29,-0.16 -0.44,-0.2 -0.12,-0.02 -0.3,-0.03 -0.55,-0.03l-1.12 0 0 3.26 -0.98 0zm0.98 -4.1l2.09 0c0.44,0 0.79,-0.05 1.04,-0.14 0.25,-0.09 0.44,-0.24 0.57,-0.44 0.13,-0.2 0.19,-0.42 0.19,-0.66 0,-0.35 -0.12,-0.63 -0.37,-0.86 -0.26,-0.22 -0.65,-0.33 -1.2,-0.33l-2.32 0 0 2.43z"/>
   </g>
   <g id="_2223840394864">
    <path class="fil1" d="M1014.13 1592.87l0 0c17.23,0.01 32.88,7.03 44.21,18.37 11.34,11.33 18.37,26.98 18.37,44.21l0 0 0 0.01c0,17.23 -7.03,32.88 -18.37,44.21 -11.33,11.34 -26.98,18.36 -44.21,18.36l0 0 0 0c-17.24,0 -32.88,-7.02 -44.22,-18.36 -11.33,-11.34 -18.36,-26.98 -18.36,-44.21l0 -0.01 0 0c0,-17.23 7.03,-32.88 18.36,-44.21 11.34,-11.34 26.98,-18.36 44.22,-18.37l0 0zm0 1.5l0 0 0 0c-16.82,0 -32.1,6.86 -43.16,17.92 -11.07,11.07 -17.93,26.34 -17.93,43.16l0 0 0 0.01c0,16.82 6.86,32.09 17.93,43.16 11.06,11.06 26.34,17.92 43.16,17.92l0 0 0 0c16.82,0 32.09,-6.86 43.16,-17.92 11.07,-11.07 17.93,-26.34 17.93,-43.16l0 -0.01 0 0c0,-16.82 -6.86,-32.09 -17.93,-43.16 -11.06,-11.06 -26.34,-17.92 -43.16,-17.92z"/>
    <path class="fil4" d="M1013.65 1617.4c5.47,0 10.14,3.54 11.83,8.45 1.29,-0.45 2.66,-0.69 4.09,-0.69 6.89,0 12.51,5.62 12.51,12.51 0,2.62 -0.81,5.05 -2.19,7.06 0.75,1.61 1.18,3.4 1.18,5.29 0,6.89 -5.62,12.51 -12.51,12.51 -2.73,0 -5.26,-0.88 -7.32,-2.37 -1.05,9.35 0.03,18.45 2.28,24.8l18.56 0 0 1.96 -55.91 0 0 -1.96 18.4 0c2.92,-5.63 3.43,-15.41 2.4,-24.77 -2.06,1.47 -4.56,2.34 -7.27,2.34 -6.89,0 -12.51,-5.62 -12.51,-12.51 0,-1.89 0.42,-3.68 1.18,-5.29 -1.39,-2.01 -2.2,-4.44 -2.2,-7.06 0,-6.89 5.62,-12.51 12.51,-12.51 1.12,0 2.2,0.15 3.24,0.43 1.76,-4.77 6.36,-8.19 11.73,-8.19z"/>
    <path class="fil5" d="M957.48 1662.38l0 -10.34 2.67 0 0 6.47 1.98 0 0 -6 2.55 0 0 6 2.46 0 0 -6.66 2.82 0 0 10.53 -12.48 0zm0.25 -15.16l1.18 -3.85 9.41 -0.06 -7.78 -5.28 1.15 -3.74 10.58 8.08 -1.22 3.99 -13.32 0.86zm6.26 -17.42l5.78 -8.56 2.21 1.49 -3.62 5.36 1.65 1.11 3.35 -4.98 2.11 1.43 -3.35 4.97 2.03 1.38 3.73 -5.52 2.34 1.58 -5.88 8.72 -10.35 -6.98zm17.83 -3.3l-8.19 -9.42 4.85 -4.22c0.9,-0.78 1.65,-1.3 2.26,-1.56 0.61,-0.26 1.25,-0.31 1.9,-0.14 0.65,0.16 1.24,0.55 1.76,1.15 0.46,0.52 0.74,1.07 0.85,1.64 0.1,0.57 0.06,1.15 -0.12,1.72 -0.12,0.37 -0.35,0.79 -0.7,1.26 0.45,-0.19 0.8,-0.29 1.06,-0.31 0.17,-0.02 0.47,0.01 0.9,0.09 0.42,0.08 0.72,0.15 0.91,0.23l3.79 1.51 -3.3 2.86 -4.05 -1.53c-0.52,-0.2 -0.91,-0.29 -1.16,-0.27 -0.34,0.04 -0.64,0.17 -0.91,0.4l-0.25 0.23 3.32 3.82 -2.92 2.54zm-1.95 -8.14l1.23 -1.07c0.13,-0.12 0.35,-0.38 0.66,-0.8 0.16,-0.21 0.23,-0.44 0.21,-0.71 -0.01,-0.26 -0.11,-0.49 -0.29,-0.7 -0.26,-0.31 -0.56,-0.45 -0.9,-0.45 -0.33,0 -0.77,0.24 -1.3,0.7l-1.27 1.11 1.66 1.92zm59.48 -3.29l1.22 -2.29 5.26 2.79 -2.5 4.7c-1.37,0.15 -2.51,0.15 -3.42,-0.02 -0.9,-0.16 -1.89,-0.53 -2.95,-1.09 -1.31,-0.7 -2.26,-1.49 -2.84,-2.37 -0.59,-0.88 -0.88,-1.89 -0.86,-3.01 0.01,-1.12 0.32,-2.26 0.93,-3.4 0.64,-1.2 1.45,-2.12 2.42,-2.74 0.96,-0.63 2.05,-0.92 3.25,-0.87 0.94,0.04 2.04,0.4 3.3,1.07 1.22,0.65 2.07,1.24 2.56,1.78 0.48,0.55 0.8,1.15 0.96,1.83 0.15,0.67 0.14,1.42 -0.04,2.24l-3.6 -1.16c0.09,-0.49 0.02,-0.93 -0.18,-1.32 -0.2,-0.39 -0.56,-0.72 -1.06,-0.99 -0.75,-0.4 -1.48,-0.45 -2.2,-0.17 -0.72,0.28 -1.38,0.98 -1.98,2.11 -0.63,1.19 -0.86,2.16 -0.68,2.91 0.18,0.75 0.66,1.34 1.47,1.77 0.38,0.2 0.77,0.34 1.18,0.41 0.4,0.07 0.9,0.1 1.48,0.07l0.55 -1.04 -2.27 -1.21zm4.68 8.77l9.43 -8.19 4.21 4.85c0.79,0.9 1.31,1.66 1.56,2.27 0.26,0.61 0.31,1.24 0.15,1.9 -0.17,0.65 -0.55,1.24 -1.15,1.76 -0.52,0.45 -1.07,0.73 -1.64,0.84 -0.58,0.11 -1.15,0.07 -1.72,-0.12 -0.37,-0.12 -0.79,-0.35 -1.26,-0.7 0.18,0.45 0.29,0.81 0.31,1.07 0.01,0.17 -0.02,0.47 -0.09,0.89 -0.08,0.43 -0.15,0.73 -0.23,0.92l-1.51 3.78 -2.86 -3.29 1.53 -4.06c0.2,-0.52 0.29,-0.91 0.27,-1.16 -0.04,-0.33 -0.18,-0.64 -0.41,-0.9l-0.22 -0.26 -3.82 3.33 -2.55 -2.93zm8.15 -1.95l1.07 1.23c0.11,0.13 0.38,0.35 0.8,0.66 0.2,0.16 0.44,0.23 0.7,0.22 0.27,-0.02 0.5,-0.12 0.71,-0.29 0.3,-0.27 0.45,-0.57 0.45,-0.9 -0.01,-0.34 -0.24,-0.77 -0.7,-1.3l-1.11 -1.28 -1.92 1.66zm5.49 9.22c1.83,-0.9 3.51,-1.08 5.02,-0.56 1.52,0.52 2.72,1.7 3.61,3.52 0.91,1.87 1.11,3.55 0.6,5.05 -0.51,1.5 -1.66,2.69 -3.47,3.57 -1.31,0.64 -2.49,0.94 -3.55,0.91 -1.05,-0.03 -2.02,-0.35 -2.89,-0.96 -0.88,-0.61 -1.61,-1.53 -2.22,-2.78 -0.62,-1.26 -0.93,-2.41 -0.93,-3.43 0,-1.03 0.31,-2.01 0.93,-2.95 0.62,-0.94 1.59,-1.73 2.9,-2.37zm1.68 3.47c-1.14,0.56 -1.85,1.16 -2.14,1.82 -0.29,0.66 -0.26,1.36 0.1,2.08 0.36,0.75 0.88,1.21 1.57,1.38 0.68,0.17 1.65,-0.05 2.91,-0.66 1.05,-0.51 1.72,-1.11 2,-1.77 0.28,-0.66 0.24,-1.36 -0.12,-2.09 -0.34,-0.7 -0.86,-1.14 -1.56,-1.32 -0.7,-0.18 -1.62,0.01 -2.76,0.56zm11.4 11.4l0.07 3.66 -6.95 1.44 7 1.81 0.07 3.65 -6.94 2.05 7 1.2 0.06 3.64 -12.53 -2.53 -0.07 -3.78 7.82 -2.32 -7.89 -2.05 -0.07 -3.78 12.43 -2.99z"/>
    <path class="fil5" d="M980.81 1691.66l3.86 0 0 4.72 4.04 -4.72 5.13 0 -4.55 4.71 4.75 7.77 -4.75 0 -2.63 -5.13 -1.99 2.08 0 3.05 -3.86 0 0 -12.48zm22.19 10.42l-4.39 0 -0.61 2.06 -3.94 0 4.69 -12.48 4.21 0 4.69 12.48 -4.04 0 -0.61 -2.06zm-0.81 -2.7l-1.38 -4.49 -1.37 4.49 2.75 0zm6.72 -7.72l3.6 0 4.7 6.91 0 -6.91 3.64 0 0 12.48 -3.64 0 -4.67 -6.85 0 6.85 -3.63 0 0 -12.48zm14.65 0l3.87 0 0 12.48 -3.87 0 0 -12.48zm6.66 0l3.6 0 4.71 6.91 0 -6.91 3.63 0 0 12.48 -3.63 0 -4.68 -6.85 0 6.85 -3.63 0 0 -12.48zm14.66 0l3.86 0 0 12.48 -3.86 0 0 -12.48z"/>
    <g>
     <path class="fil2 str1" d="M1067.78 1595.01c3.47,0 6.29,2.82 6.29,6.29 0,3.48 -2.82,6.29 -6.29,6.29 -3.47,0 -6.29,-2.81 -6.29,-6.29 0,-3.47 2.82,-6.29 6.29,-6.29z"/>
    </g>
    <path class="fil3" d="M1064.86 1604.62l0 -6.63 2.94 0c0.59,0 1.04,0.06 1.34,0.18 0.31,0.12 0.56,0.33 0.74,0.63 0.19,0.3 0.28,0.63 0.28,1 0,0.47 -0.15,0.86 -0.46,1.19 -0.3,0.32 -0.77,0.52 -1.41,0.61 0.23,0.11 0.41,0.22 0.53,0.33 0.25,0.24 0.5,0.53 0.73,0.88l1.15 1.81 -1.1 0 -0.88 -1.38c-0.26,-0.4 -0.47,-0.7 -0.63,-0.92 -0.17,-0.21 -0.32,-0.36 -0.45,-0.44 -0.13,-0.08 -0.26,-0.14 -0.4,-0.18 -0.1,-0.02 -0.26,-0.03 -0.49,-0.03l-1.01 0 0 2.95 -0.88 0zm0.88 -3.71l1.88 0c0.4,0 0.72,-0.04 0.94,-0.12 0.23,-0.08 0.4,-0.22 0.52,-0.4 0.11,-0.18 0.17,-0.38 0.17,-0.59 0,-0.32 -0.11,-0.57 -0.34,-0.78 -0.22,-0.2 -0.59,-0.3 -1.08,-0.3l-2.09 0 0 2.19z"/>
   </g>
  </g>
 </g>
</svg>
